<svg width="87" height="84" viewBox="0 0 87 84" fill="none" xmlns="http://www.w3.org/2000/svg">
<circle cx="44.5352" cy="42.0054" r="40.8359" fill="url(#paint0_linear)" stroke="#7B39E7" stroke-width="1.87034"/>
<path d="M25.8325 19.0502C26.066 19.0059 26.2574 18.9372 26.4481 18.9377C34.318 18.9693 42.1884 18.9572 50.0574 19.071C52.7392 19.1094 55.2034 20.0895 57.4066 21.7141C62.4356 25.4211 62.9001 36.0115 55.9964 39.8103C55.6452 40.0035 55.2954 40.1987 54.8185 40.4627C56.1305 41.0866 57.4212 41.5048 58.5031 42.2492C62.6555 45.1068 64.3467 51.5005 62.4878 57.1162C60.8656 62.0158 57.0143 64.039 52.5354 65.1153C51.0644 65.4689 49.5238 65.6523 48.013 65.6633C40.6563 65.7184 33.2992 65.6879 25.8317 65.6879C25.8325 50.1598 25.8325 34.6296 25.8325 19.0502ZM33.7006 58.853C39.1722 58.853 44.4859 58.9821 49.7897 58.8064C53.1238 58.6959 55.5331 54.9938 55.3325 51.3928C55.1349 47.8434 53.0249 44.8249 49.7635 44.6671C44.5054 44.4126 39.233 44.4846 33.9663 44.4277C33.8876 44.4272 33.8077 44.5471 33.7004 44.6335L33.7006 58.853ZM33.7189 38.3515C38.6094 38.3515 43.3258 38.536 48.0211 38.2903C51.4789 38.1091 53.4306 35.2451 53.3012 31.33C53.1867 27.8636 51.2108 25.7788 47.6535 25.6815C43.1935 25.5603 38.7284 25.6164 34.2651 25.6056C34.0835 25.6051 33.9017 25.7066 33.7189 25.7604V38.3515Z" fill="white"/>
<defs>
<linearGradient id="paint0_linear" x1="44.5352" y1="0.234375" x2="44.5352" y2="83.7764" gradientUnits="userSpaceOnUse">
<stop stop-color="#141414"/>
<stop offset="1" stop-color="#484848"/>
</linearGradient>
</defs>
</svg>
