<svg width="84" height="84" viewBox="0 0 84 84" fill="none" xmlns="http://www.w3.org/2000/svg">
<circle cx="41.8883" cy="42.0054" r="41.4593" fill="url(#paint0_linear)" stroke="#DF1D1D" stroke-width="0.623448"/>
<path d="M71.2967 40.2461L44.893 13.8438C43.3734 12.3232 40.9071 12.3232 39.3856 13.8438L33.9027 19.3267L40.858 26.282C42.4743 25.7358 44.3277 26.1022 45.6161 27.3906C46.9106 28.6872 47.2744 30.5565 46.715 32.178L53.418 38.8812C55.0397 38.3225 56.9109 38.6839 58.2061 39.9813C60.0164 41.7908 60.0164 44.7236 58.2061 46.5343C56.3954 48.3452 53.4627 48.3452 51.651 46.5343C50.2894 45.1713 49.953 43.1716 50.6423 41.4941L44.3913 35.243L44.3906 51.6933C44.8437 51.9173 45.2576 52.2133 45.6161 52.5697C47.4263 54.3792 47.4263 57.3122 45.6161 59.1243C43.8054 60.9343 40.8712 60.9343 39.0631 59.1243C37.2529 57.3122 37.2529 54.3794 39.0631 52.5699C39.4969 52.1359 40.0125 51.7922 40.58 51.5586V34.9551C40.0117 34.7231 39.4958 34.3792 39.0631 33.9438C37.6916 32.5741 37.3618 30.5617 38.0646 28.8776L31.2083 22.0206L13.1038 40.124C11.5824 41.646 11.5824 44.1125 13.1038 45.6333L39.5079 72.0361C41.0281 73.5569 43.4938 73.5569 45.0159 72.0361L71.2965 45.7559C72.8173 44.2346 72.8173 41.7667 71.2965 40.2461" fill="white"/>
<defs>
<linearGradient id="paint0_linear" x1="41.8883" y1="0.234375" x2="41.8883" y2="83.7764" gradientUnits="userSpaceOnUse">
<stop stop-color="#141414"/>
<stop offset="1" stop-color="#484848"/>
</linearGradient>
</defs>
</svg>
