<svg width="84" height="84" viewBox="0 0 84 84" fill="none" xmlns="http://www.w3.org/2000/svg">
<circle cx="42.0055" cy="42.0054" r="41.1476" fill="url(#paint0_linear)" stroke="#E04821" stroke-width="1.2469"/>
<path d="M42.3452 36.2739H29.9932L29.1399 27.8185H42.3452V19.5613H18.9379L19.1616 21.7765L21.4558 44.5308H42.3452V36.2739ZM42.3452 57.7182L42.3042 57.7281L31.9081 55.2448L31.2435 48.6597H21.8731L23.181 61.6245L42.3025 66.3199L42.3452 66.3093V57.7182Z" fill="#EBEBEB"/>
<path d="M42.313 36.2738V44.5307H53.8078L52.7241 55.2397L42.313 57.7251V66.3155L61.4497 61.6245L61.5897 60.2291L63.7836 38.4912L64.0114 36.2738H61.4962H42.313ZM42.313 19.5613V27.8185H64.8609L65.0478 25.9624L65.4732 21.7765L65.6965 19.5613H42.313Z" fill="white"/>
<defs>
<linearGradient id="paint0_linear" x1="42.0055" y1="0.234375" x2="42.0055" y2="83.7764" gradientUnits="userSpaceOnUse">
<stop stop-color="#141414"/>
<stop offset="1" stop-color="#484848"/>
</linearGradient>
</defs>
</svg>
