<svg width="86" height="86" viewBox="0 0 86 86" fill="none" xmlns="http://www.w3.org/2000/svg">
<circle cx="43.1117" cy="43.0054" r="41.771" fill="url(#paint0_linear)" stroke="#F1D605" stroke-width="1.2469"/>
<path d="M16.3036 55.3484L22.524 51.5839C23.7241 53.7116 24.8157 55.5119 27.4342 55.5119C29.9442 55.5119 31.5267 54.53 31.5267 50.711V24.7388H39.1653V50.8189C39.1653 58.7306 34.5277 62.3317 27.7617 62.3317C21.6511 62.3317 18.104 59.167 16.3035 55.3478" fill="white"/>
<path d="M43.3144 54.5299L49.534 50.9287C51.1713 53.6026 53.2993 55.5667 57.0639 55.5667C60.229 55.5667 62.2473 53.9842 62.2473 51.8017C62.2473 49.1827 60.174 48.255 56.6819 46.7277L54.7727 45.9087C49.2615 43.563 45.6057 40.6166 45.6057 34.3963C45.6057 28.6672 49.9706 24.302 56.7913 24.302C61.6474 24.302 65.1394 25.9936 67.649 30.4133L61.7016 34.2325C60.392 31.8864 58.9738 30.959 56.7914 30.959C54.5543 30.959 53.1356 32.3776 53.1356 34.2325C53.1356 36.5241 54.5543 37.4519 57.8277 38.8707L59.7373 39.6891C66.2303 42.4719 69.8861 45.3089 69.8861 51.6925C69.8861 58.5679 64.4845 62.3323 57.2278 62.3323C50.1346 62.3323 45.5513 58.9496 43.3145 54.5299" fill="white"/>
<defs>
<linearGradient id="paint0_linear" x1="43.1117" y1="1.23437" x2="43.1117" y2="84.7764" gradientUnits="userSpaceOnUse">
<stop stop-color="#141414"/>
<stop offset="1" stop-color="#484848"/>
</linearGradient>
</defs>
</svg>
