<svg width="34" height="34" viewBox="0 0 34 34" fill="none" xmlns="http://www.w3.org/2000/svg">
<g clip-path="url(#clip0_79:67)">
<rect width="34" height="34" rx="2" fill="white"/>
<path d="M29.6737 29.6742H24.3396V21.3206C24.3396 19.3287 24.3041 16.7644 21.5654 16.7644C18.7872 16.7644 18.3621 18.9348 18.3621 21.1757V29.6736H13.0282V12.4954H18.1488V14.843H18.2205C18.7329 13.9668 19.4735 13.246 20.3632 12.7573C21.2529 12.2686 22.2585 12.0304 23.2729 12.0681C28.6792 12.0681 29.6759 15.6242 29.6759 20.2505L29.6737 29.6742V29.6742ZM7.00944 10.1474C5.29986 10.1477 3.91372 8.76199 3.91344 7.05242C3.91316 5.34284 5.29873 3.9567 7.00831 3.95642C8.71789 3.95599 10.104 5.34171 10.1043 7.05129C10.1045 7.87227 9.77848 8.65968 9.19809 9.24031C8.61769 9.82095 7.83041 10.1472 7.00944 10.1474V10.1474ZM9.67653 29.6743H4.33686V12.4954H9.67639V29.6742L9.67653 29.6743ZM32.3329 -0.99738H1.65655C0.206703 -1.01369 -0.982281 0.147729 -1 1.59757V32.4019C-0.982844 33.8524 0.206 35.015 1.65641 34.9998H32.3329C33.7864 35.0178 34.9799 33.8553 35 32.4019V1.59518C34.9793 0.142526 33.7857 -1.01875 32.3329 -0.999771" fill="#0A66C2"/>
</g>
<defs>
<clipPath id="clip0_79:67">
<rect width="34" height="34" rx="2" fill="white"/>
</clipPath>
</defs>
</svg>
