<svg width="133" height="100" viewBox="0 0 133 100" fill="none" xmlns="http://www.w3.org/2000/svg">
<g clip-path="url(#clip0_501_100)">
<path d="M30.2274 99.5079V48.2592L14.2907 33.7188L0 25.6499V90.4639C0 95.468 4.06533 99.5079 9.06842 99.5079H30.2274V99.5079Z" fill="#4285F4"/>
<path d="M102.773 99.5079H123.932C128.95 99.5079 133 95.453 133 90.4639V25.6504L116.814 34.8924L102.773 48.2592V99.5079V99.5079Z" fill="#34A853"/>
<path d="M30.2274 48.2592L28.0588 28.2349L30.2274 9.06958L66.5 36.2012L102.773 9.06958L105.199 27.2001L102.773 48.2592L66.5 75.3908L30.2274 48.2592Z" fill="#EA4335"/>
<path d="M102.773 9.06951V48.2591L133 25.6498V13.5913C133 2.40734 120.199 -3.96831 111.237 2.73894L102.773 9.06951Z" fill="#FBBC04"/>
<path d="M0 25.6496L13.9021 36.0485L30.2274 48.2589V9.06926L21.7632 2.73869C12.7857 -3.96908 0 2.40709 0 13.5905V25.6491V25.6496Z" fill="#C5221F"/>
</g>
<defs>
<clipPath id="clip0_501_100">
<rect width="133" height="100" fill="white"/>
</clipPath>
</defs>
</svg>
