<svg width="85" height="84" viewBox="0 0 85 84" fill="none" xmlns="http://www.w3.org/2000/svg">
<circle cx="42.5586" cy="42.0054" r="41.771" fill="url(#paint0_linear)"/>
<circle cx="42.5586" cy="42.0054" r="41.1476" stroke="#DD2881" stroke-opacity="0.81" stroke-width="1.2469"/>
<path d="M68.2738 45.8174C66.1206 45.8288 64.2491 46.3527 62.6821 47.1271C62.1071 45.9769 61.5322 44.9519 61.4307 44.2003C61.318 43.3234 61.1827 42.7881 61.318 41.7404C61.4533 40.6927 62.0621 39.2008 62.0508 39.0869C62.0395 38.973 61.9155 38.4377 60.6754 38.4264C59.4353 38.415 58.3643 38.6655 58.2403 38.9958C58.1163 39.326 57.8795 40.0777 57.7217 40.8521C57.5075 41.9909 55.2415 46.0566 53.945 48.1862C53.5279 47.3549 53.1671 46.626 53.0882 46.0452C52.9755 45.1683 52.8402 44.633 52.9755 43.5853C53.1108 42.5376 53.7196 41.0457 53.7083 40.9318C53.697 40.8179 53.573 40.2827 52.3329 40.2713C51.0928 40.2599 50.0218 40.5104 49.8978 40.8407C49.7738 41.171 49.6385 41.9454 49.3792 42.697C49.1199 43.4487 46.1098 50.2362 45.3207 51.99C44.9148 52.8897 44.5653 53.6071 44.3173 54.0968C44.3173 54.0968 44.3061 54.131 44.2722 54.1879C44.058 54.6093 43.934 54.8371 43.934 54.8371C43.934 54.8371 43.934 54.8371 43.934 54.8485C43.7649 55.156 43.5845 55.4407 43.4944 55.4407C43.4267 55.4407 43.3027 54.6207 43.5169 53.5046C43.9678 51.1472 45.0388 47.4802 45.0276 47.3549C45.0276 47.2866 45.2305 46.6488 44.3286 46.3185C43.4493 45.9883 43.1336 46.5349 43.0547 46.5349C42.9758 46.5349 42.9194 46.7285 42.9194 46.7285C42.9194 46.7285 43.9002 42.6059 41.048 42.6059C39.2667 42.6059 36.8091 44.5761 35.5915 46.3527C34.8249 46.7741 33.1902 47.6738 31.4428 48.6418C30.7777 49.0176 30.09 49.3934 29.4474 49.7465C29.4023 49.7009 29.3572 49.644 29.3121 49.5984C25.8624 45.8744 19.4815 43.2437 19.752 38.2441C19.8535 36.422 20.4736 31.6388 32.0065 25.8307C41.4989 21.1045 49.0523 22.4142 50.36 25.3183C52.2314 29.4637 46.3128 37.1622 36.5047 38.2783C32.7618 38.6997 30.8002 37.242 30.3042 36.6953C29.7856 36.1259 29.7067 36.0917 29.515 36.2056C29.1994 36.3764 29.4023 36.8889 29.515 37.185C29.8081 37.9594 31.0144 39.326 33.055 39.998C34.8587 40.5902 39.2442 40.9204 44.5541 38.8477C50.4953 36.5245 55.14 30.0672 53.7759 24.6577C52.4118 19.1685 43.3929 17.3578 34.8587 20.4212C29.7856 22.2434 24.2841 25.1133 20.327 28.8487C15.6259 33.2902 14.8818 37.1509 15.1862 38.768C16.2798 44.5078 24.1149 48.2432 27.249 51.0106C27.0912 51.1017 26.9446 51.1814 26.8206 51.2497C25.2536 52.0355 19.2786 55.1901 17.7904 58.5269C16.0994 62.3079 18.061 65.0183 19.3575 65.3828C23.3822 66.5102 27.5196 64.4831 29.7405 61.1349C31.9614 57.7867 31.6908 53.4363 30.6649 51.4433C30.6537 51.4206 30.6424 51.3978 30.6198 51.375C31.0257 51.1358 31.4428 50.8853 31.8487 50.6461C32.6491 50.1678 33.4383 49.7237 34.1147 49.3592C33.7314 50.4184 33.4495 51.6825 33.3142 53.5046C33.1451 55.6457 34.0132 58.4244 35.1518 59.5177C35.6592 59.996 36.2567 60.0074 36.64 60.0074C37.9703 60.0074 38.5678 58.8914 39.2329 57.5703C40.0446 55.9531 40.7774 54.0741 40.7774 54.0741C40.7774 54.0741 39.8642 59.1533 42.3444 59.1533C43.2463 59.1533 44.1595 57.9689 44.5653 57.3653V57.3767C44.5653 57.3767 44.5879 57.3425 44.633 57.2628C44.7232 57.1148 44.7795 57.0237 44.7795 57.0237V57.0009C45.1403 56.3631 45.952 54.9168 47.1583 52.5138C48.7141 49.4162 50.2134 45.5441 50.2134 45.5441C50.2134 45.5441 50.3487 46.4894 50.811 48.061C51.0815 48.9834 51.6452 49.997 52.0961 50.9764C51.7354 51.4889 51.5099 51.7736 51.5099 51.7736C51.5099 51.7736 51.5099 51.7736 51.5212 51.785C51.2281 52.1722 50.9124 52.5936 50.5629 53.0035C49.3341 54.484 47.8685 56.1809 47.6656 56.6706C47.4289 57.2514 47.4852 57.6728 47.9362 58.0145C48.2631 58.265 48.8493 58.2992 49.4468 58.265C50.5517 58.1853 51.3295 57.912 51.7128 57.7411C52.3103 57.5248 53.0093 57.1945 53.6632 56.7048C54.8695 55.8051 55.6022 54.5182 55.5346 52.8213C55.5008 51.8875 55.1964 50.9536 54.8244 50.0767C54.9371 49.9173 55.0386 49.7578 55.1513 49.5984C57.0566 46.7855 58.5334 43.6992 58.5334 43.6992C58.5334 43.6992 58.6687 44.6444 59.1309 46.216C59.3564 47.0132 59.8186 47.8788 60.2244 48.7215C58.4319 50.1906 57.3271 51.8989 56.9325 53.0149C56.2223 55.0876 56.7747 56.0215 57.8232 56.2379C58.2967 56.3404 58.9731 56.1126 59.4691 55.8962C60.1004 55.6912 60.8445 55.3382 61.5547 54.8143C62.761 53.9146 63.9222 52.6619 63.8546 50.965C63.8207 50.1906 63.6178 49.4276 63.336 48.6873C64.8579 48.0496 66.8195 47.6965 69.3223 47.9926C74.6885 48.6304 75.7483 52.0127 75.5453 53.4363C75.3424 54.8599 74.215 55.6343 73.843 55.8734C73.471 56.1126 73.347 56.1923 73.3808 56.3631C73.4259 56.6137 73.6063 56.6023 73.9219 56.5567C74.3616 56.477 76.7403 55.4065 76.8418 52.7872C77.0109 49.439 73.8543 45.7833 68.2738 45.8174ZM26.877 59.9163C25.0958 61.8751 22.6156 62.6154 21.5446 61.989C20.3946 61.3171 20.8456 58.4244 23.0327 56.3517C24.363 55.0876 26.0766 53.9146 27.2152 53.1971C27.4745 53.0377 27.8578 52.8099 28.32 52.5252C28.3989 52.4797 28.444 52.4569 28.444 52.4569C28.5342 52.4 28.6244 52.343 28.7146 52.2861C29.515 55.2471 28.7484 57.855 26.877 59.9163ZM39.8417 51.0106C39.2216 52.5366 37.9252 56.4429 37.136 56.2265C36.4596 56.0443 36.0425 53.0833 37.0007 50.1564C37.4855 48.6873 38.5114 46.9335 39.1089 46.2502C40.0784 45.1569 41.1494 44.7925 41.4087 45.2366C41.7357 45.8174 40.225 50.0539 39.8417 51.0106ZM50.5404 56.1809C50.2811 56.3176 50.0331 56.4087 49.9203 56.3404C49.8414 56.2948 50.0331 56.1126 50.0331 56.1126C50.0331 56.1126 51.3746 54.6549 51.9045 53.9943C52.2089 53.6071 52.5696 53.1516 52.9529 52.6391V52.7872C52.9529 54.5296 51.2844 55.7026 50.5404 56.1809ZM58.7927 54.279C58.601 54.1424 58.6349 53.6868 59.2775 52.2633C59.5255 51.7053 60.1117 50.7714 61.1151 49.8717C61.2278 50.2362 61.3067 50.5892 61.2954 50.9195C61.2842 53.1174 59.7284 53.9374 58.7927 54.279Z" fill="white"/>
<defs>
<linearGradient id="paint0_linear" x1="42.5586" y1="0.234375" x2="42.5586" y2="83.7764" gradientUnits="userSpaceOnUse">
<stop stop-color="#141414"/>
<stop offset="1" stop-color="#484848"/>
</linearGradient>
</defs>
</svg>
