<svg width="29" height="28" viewBox="0 0 29 28" fill="none" xmlns="http://www.w3.org/2000/svg">
<path d="M0 13.6114V13.5724C0.353975 9.04412 2.00586 5.64792 4.87699 3.50089C7.70879 1.31483 10.7766 0.260832 14.1197 0.260832C17.6201 0.221795 20.8845 1.3929 23.795 3.73511C26.7448 6.03829 28.2 9.47353 28.2 13.9237V14.197C28.2 18.6862 26.7448 22.0434 23.795 24.3466C20.8452 26.6888 17.5808 27.8599 14.0803 27.8599H13.923C10.5013 27.8209 7.35481 26.6497 4.44435 24.3075C1.53389 22.0044 0.0393305 18.452 0 13.6114ZM13.2544 7.48265V1.31483H12.3105C12.1138 1.54905 11.9565 1.82231 11.7992 2.05653C11.6418 2.29075 11.4845 2.52497 11.3272 2.79823C11.1699 3.03245 10.9732 3.34474 10.8552 3.57897C10.6979 3.81319 10.5799 4.04741 10.4619 4.32067C10.2259 4.71103 10.0293 5.1014 9.87197 5.45273C9.67531 5.80407 9.51799 6.1554 9.4 6.46769C9.63598 6.62384 9.9113 6.81902 10.2259 6.93613C10.5799 7.05325 10.9339 7.17036 11.2879 7.24843C11.6812 7.3265 12.0351 7.36554 12.3498 7.40458C12.7038 7.44361 13.0184 7.48265 13.2544 7.48265ZM14.9063 1.31483V7.44361C15.1029 7.44361 15.3389 7.48265 15.5749 7.44361C15.8109 7.44361 16.0862 7.40458 16.3222 7.36554C16.7548 7.28747 17.2661 7.17036 17.6594 7.05325C18.0921 6.8971 18.4854 6.70191 18.7607 6.46769C18.2887 5.33562 17.7774 4.43778 17.2661 3.57897C16.7548 2.72015 16.1649 1.97845 15.5356 1.35386V1.31483H14.9063ZM10.6586 1.66616V1.62712C10.3833 1.74423 10.108 1.93942 9.79331 2.05653C9.51799 2.17364 9.16402 2.32979 8.8887 2.48593C8.33808 2.75919 7.78745 3.07149 7.23682 3.42282C6.72552 3.77415 6.21423 4.16452 5.78159 4.55489C5.93891 4.71103 6.13557 4.86718 6.29289 4.98429C6.45021 5.1014 6.64686 5.25755 6.84351 5.4137C7.00084 5.49177 7.19749 5.60888 7.39414 5.76503C7.5908 5.88214 7.82678 6.03829 8.06276 6.19443C8.37741 5.49177 8.69205 4.75007 9.08536 4.08644C9.47866 3.38378 9.9113 2.72015 10.3439 2.1346C10.3833 2.05653 10.4226 1.97845 10.5013 1.90038C10.5406 1.86134 10.5799 1.74423 10.6586 1.66616ZM22.6937 4.55489V4.51585C21.7105 3.77415 20.8452 3.14956 19.9799 2.75919C19.1146 2.36882 18.2494 1.97845 17.4628 1.66616C18.0921 2.29075 18.6427 3.07149 18.9967 3.81319C19.39 4.59392 19.7833 5.4137 20.0979 6.19443C20.2552 6.11636 20.4519 6.03829 20.6879 5.88214C20.8845 5.76503 21.1598 5.64792 21.3958 5.53081C21.6318 5.37466 21.8285 5.21851 22.0644 5.06237C22.3004 4.86718 22.5364 4.71103 22.6937 4.55489ZM22.0251 13.2601H26.5481C26.5481 11.8157 26.2335 10.4495 25.6435 9.04412C25.0929 7.67783 24.3063 6.54577 23.323 5.56984V5.53081C23.1264 5.8431 22.851 6.11636 22.5757 6.31154C22.2611 6.50673 21.9858 6.66288 21.6711 6.81902C21.4745 6.93613 21.2778 7.09228 21.0812 7.17036C20.8845 7.28747 20.6092 7.36554 20.4126 7.48265C20.5699 7.79495 20.7272 8.14628 20.8845 8.45857C21.0025 8.8099 21.1992 9.20027 21.2778 9.5516C21.5138 10.1762 21.6711 10.8398 21.8285 11.5034C21.9464 12.089 22.0251 12.7136 22.0251 13.2601ZM7.78745 7.48265V7.44361C7.4728 7.28747 7.11883 7.17036 6.84351 7.01421C6.5682 6.81902 6.29289 6.62384 6.0569 6.46769C5.82092 6.35058 5.58494 6.19443 5.38828 6.03829C5.19163 5.88214 5.03431 5.72599 4.87699 5.56984C3.85439 6.54577 3.10711 7.6388 2.63515 8.92701C2.12385 10.2152 1.76987 11.6596 1.61255 13.2211H6.45021C6.45021 12.128 6.60753 11.074 6.88285 10.02C7.11883 8.92701 7.4728 8.10724 7.78745 7.48265ZM13.2544 13.2211V8.73183C12.9397 8.77087 12.5464 8.77087 12.1925 8.73183C11.7992 8.69279 11.4059 8.57568 11.0519 8.45857C10.7372 8.3805 10.3439 8.30242 10.0293 8.18531C9.67531 8.10724 9.32134 7.95109 9.04603 7.79495C8.81004 8.18531 8.61339 8.65376 8.45607 9.16124C8.25941 9.62968 8.14142 10.1372 8.02343 10.6056C7.94477 11.074 7.90544 11.5815 7.86611 12.0109C7.82678 12.4403 7.78745 12.8697 7.78745 13.2211H13.2544ZM14.9063 8.8099V13.2211H20.7272C20.7272 12.9868 20.7272 12.7136 20.6879 12.4013C20.6092 12.128 20.5699 11.7767 20.5305 11.4644C20.4126 10.996 20.2946 10.4885 20.1372 10.02C19.9799 9.59064 19.8226 9.16124 19.6259 8.8099C19.5473 8.61472 19.4686 8.3805 19.39 8.22435C19.272 8.02917 19.154 7.91206 19.0753 7.79495C18.6427 8.10724 18.0527 8.30242 17.3448 8.45857C16.6762 8.61472 15.8895 8.77087 15.1816 8.8099H14.9063ZM6.45021 14.5093H1.61255C1.61255 15.1729 1.73054 15.9146 1.9272 16.8125C2.12385 17.7493 2.51715 18.6082 2.94979 19.545C3.14644 20.0135 3.38243 20.4819 3.61841 20.9504C3.89372 21.3798 4.20837 21.8482 4.52301 22.2776C4.759 22.1215 4.99498 22.0044 5.19163 21.8872C5.42762 21.7701 5.70293 21.614 5.93891 21.4969C6.21423 21.3798 6.48954 21.2627 6.80418 21.1065C7.0795 20.9894 7.43347 20.8333 7.78745 20.6771C7.4728 19.7012 7.11883 18.7643 6.88285 17.7103C6.60753 16.6953 6.45021 15.6804 6.45021 14.5483V14.5093ZM13.2544 19.0766V14.5093H7.78745C7.78745 14.8216 7.82678 15.29 7.90544 15.7585C7.94477 16.2269 8.06276 16.7344 8.14142 17.2419C8.29875 17.7884 8.41674 18.3349 8.57406 18.8033C8.73138 19.2718 8.8887 19.6621 9.04603 20.0135C9.75397 19.7402 10.4619 19.545 10.9339 19.4279C11.4452 19.2718 11.9172 19.1547 12.3891 19.1156H12.8218C12.9791 19.0766 13.1364 19.0766 13.2544 19.0766ZM14.9063 14.5093V19.0376C15.1816 19.0766 15.4962 19.1156 15.8109 19.1547C16.1649 19.1937 16.5975 19.2718 16.9515 19.3499L17.5414 19.467C17.7381 19.545 17.9741 19.5841 18.1707 19.6231C18.4067 19.7012 18.6427 19.7402 18.8787 19.8183C19.0753 19.8964 19.272 19.9354 19.4293 20.0135C19.9406 18.7253 20.2552 17.6713 20.4519 16.7734C20.6485 15.9146 20.7272 15.1729 20.7272 14.5483V14.5093H14.9063ZM26.5481 14.5483V14.5093H22.0251V14.7435C21.9858 15.4852 21.8678 16.344 21.7105 17.2419C21.5531 18.1007 21.1992 19.1156 20.7272 20.3648C21.3565 20.6771 21.9464 20.9894 22.4184 21.3017C22.8904 21.614 23.323 21.9653 23.6377 22.2776C24.3063 21.614 24.8962 20.7161 25.4075 19.545C25.9188 18.413 26.2728 17.2419 26.4695 15.9927C26.5088 15.7585 26.5088 15.5242 26.5481 15.29V14.5483ZM13.2544 26.4155V20.3258C12.2711 20.4819 11.4452 20.6771 10.8159 20.8333C10.1866 20.9894 9.71464 21.1455 9.4 21.3017C9.63598 21.8872 9.87197 22.3947 10.108 22.8632C10.3439 23.2926 10.6192 23.761 10.8552 24.1514C10.9339 24.3075 11.0912 24.4637 11.2092 24.6589C11.3272 24.815 11.4059 25.0102 11.5238 25.1663C11.6418 25.3615 11.7598 25.5958 11.8778 25.83C12.0351 26.0252 12.1531 26.2594 12.3105 26.4155H13.2544ZM14.9063 26.4155H15.8109C16.1649 26.1423 16.5188 25.7519 16.7941 25.3225C17.1088 24.8931 17.4628 24.3856 17.6987 23.9562C17.9741 23.4487 18.2494 22.9803 18.4854 22.5118C18.7213 22.0434 18.918 21.614 19.0753 21.3017C18.6427 21.1455 18.0527 20.9894 17.4628 20.8333C16.8728 20.6771 16.0469 20.521 14.9063 20.3648V26.4155ZM22.6937 23.2145V23.1755C22.6151 23.0584 22.4577 22.9022 22.3398 22.7851C22.2218 22.668 22.0251 22.5118 21.8285 22.3947C21.6711 22.2776 21.4745 22.1605 21.2385 22.0434C21.0025 21.9263 20.6879 21.7701 20.4126 21.614C20.2552 21.9263 19.9799 22.4728 19.5866 23.2145C19.2326 23.9562 18.6033 24.854 17.8167 25.83C18.8 25.6738 19.6653 25.3225 20.4519 24.854C21.3172 24.4246 22.0644 23.8391 22.6937 23.2145ZM8.06276 21.9653V21.9263C7.78745 22.0824 7.35481 22.2776 6.92218 22.4728C6.45021 22.668 5.93891 22.9022 5.46695 23.2145C5.74226 23.4487 6.01757 23.6829 6.25356 23.8391C6.48954 24.0343 6.76485 24.1904 7.00084 24.3466C7.43347 24.6198 7.94477 24.8931 8.45607 25.1273C8.96736 25.3615 9.59665 25.5958 10.3833 25.83C10.108 25.5177 9.9113 25.1273 9.71464 24.815C9.51799 24.5027 9.28201 24.1904 9.08536 23.8781C8.8887 23.5658 8.73138 23.2145 8.57406 22.9022C8.37741 22.5899 8.22008 22.2776 8.06276 21.9653Z" fill="black"/>
</svg>
